<svg width="1000" height="623" viewBox="0 0 1000 623" fill="none" xmlns="http://www.w3.org/2000/svg">
<g clip-path="url(#clip0_1_3)">
<g clip-path="url(#clip1_1_3)">
<g clip-path="url(#clip2_1_3)">
<path d="M349.937 620.23C332.72 620.23 317.427 616.143 304.059 607.973C290.691 616.143 278.34 620.23 267.005 620.23C255.669 620.23 246.364 619.287 239.092 617.402C231.714 615.411 225.295 612.741 219.844 609.387C208.615 602.787 203 594.513 203 584.559C203 579.426 204.443 574.921 207.333 571.047C213.109 575.446 220.434 577.647 229.308 577.645C252.516 577.645 268.556 567.903 277.431 548.419V463.289H314.968V510.863C327.599 506.197 334.768 490.341 336.473 463.289H421.481V552.348C434.101 566.176 450.782 573.09 471.528 573.09C492.274 573.09 510.295 569.058 525.588 560.989C540.772 552.923 553.606 540.457 564.088 523.591C573.841 507.668 581.348 487.567 586.607 463.289H630.019C624.795 485.798 620.729 501.657 617.825 510.863C629.483 507.51 637.984 499.917 643.33 488.078C646.937 480.182 650.169 471.918 653.028 463.289H728.133C713.251 500.532 692.147 531.842 664.824 557.219C617.021 601.74 554.997 624.002 478.747 624C448.162 624 420.733 619.391 396.457 610.172C384.694 616.876 369.187 620.23 349.937 620.23ZM277.431 90.052C268.554 70.3586 252.513 60.5106 229.308 60.5106C220.431 60.5106 213.106 62.6574 207.333 66.9534C204.446 63.183 203.003 58.7833 203 53.7545C203 48.7257 204.496 44.0645 207.491 39.7685C210.486 35.3689 214.602 31.6503 219.844 28.6128C231.822 21.489 245.616 17.9283 261.229 17.9283C276.735 17.9283 291.01 22.1182 304.059 30.498C317.641 22.1182 332.077 17.9259 347.37 17.9283C362.663 17.9283 376.832 21.1238 389.88 27.5122C420.68 18.5033 449.232 13.9975 475.538 14C501.952 14 525.318 15.4139 545.639 18.2417C566.065 21.0695 585.527 25.9947 604.028 33.0124C622.53 40.0301 639.962 49.4585 656.322 61.2978C672.683 73.0309 687.228 87.6955 699.956 105.296C714.407 125.024 726.088 148.162 735 174.711H653.285C651.146 169.275 648.846 164.048 646.377 159.037C638.249 144.266 628.198 135.571 616.22 132.95C621.525 147.432 626.11 161.351 629.976 174.711H583.804C583.443 173.571 583.073 172.431 582.695 171.293C578.096 157.571 572.375 144.37 565.531 131.694C558.579 119.018 550.291 107.808 540.666 98.0665C519.492 76.8013 494.521 66.1687 465.754 66.1687C456.877 66.1687 448.27 66.3784 439.927 66.7979C431.587 67.2174 425.436 69.7318 421.481 74.3387V174.711H336.669C335.206 159.449 332.73 149.72 329.243 145.522C324.218 139.237 319.457 135.048 314.968 132.95C314.968 147.96 314.926 161.882 314.835 174.711H277.431V90.052Z" fill="black"/>
<path d="M155.219 395.188C150.406 395.188 146.141 394.021 142.422 391.688C138.703 394.021 135.24 395.188 132.031 395.188C128.896 395.188 126.307 394.896 124.266 394.312C122.224 393.802 120.438 393.073 118.906 392.125C115.771 390.229 114.203 387.859 114.203 385.016C114.203 383.557 114.604 382.281 115.406 381.188C117.01 382.427 119.052 383.047 121.531 383.047C128.021 383.047 132.505 380.276 134.984 374.734V321.25C134.984 317.896 134.292 315.417 132.906 313.812C130.719 311.115 126.964 308.453 121.641 305.828C126.599 303.568 129.807 301.562 131.266 299.812C133.745 296.969 134.984 293.76 134.984 290.188V244.031C132.505 238.417 128.021 235.609 121.531 235.609C119.052 235.609 117.01 236.229 115.406 237.469C114.604 236.375 114.203 235.135 114.203 233.75C114.203 232.292 114.604 230.943 115.406 229.703C116.281 228.464 117.448 227.406 118.906 226.531C122.26 224.49 126.089 223.469 130.391 223.469C134.766 223.469 138.776 224.672 142.422 227.078C146.214 224.672 150.224 223.469 154.453 223.469C158.755 223.469 162.729 224.38 166.375 226.203C174.979 223.651 182.964 222.375 190.328 222.375C197.693 222.375 204.219 222.776 209.906 223.578C215.594 224.38 221.026 225.802 226.203 227.844C231.38 229.812 236.229 232.474 240.75 235.828C245.344 239.182 249.427 243.375 253 248.406C260.583 258.979 265.432 272.979 267.547 290.406C267.984 294.708 268.896 297.734 270.281 299.484C272.615 302.328 275.786 304.443 279.797 305.828C275.568 307.432 272.797 309.073 271.484 310.75C269.297 313.521 267.984 317.021 267.547 321.25C265.141 345.458 257.01 364.125 243.156 377.25C229.812 389.938 212.495 396.281 191.203 396.281C182.672 396.281 175.016 394.969 168.234 392.344C164.953 394.24 160.615 395.188 155.219 395.188ZM175.234 375.828C178.734 379.766 183.365 381.734 189.125 381.734C194.958 381.734 199.99 380.604 204.219 378.344C208.521 376.01 212.13 372.438 215.047 367.625C220.953 357.781 223.906 342.323 223.906 321.25C223.906 316.656 223.177 313.521 221.719 311.844C219.75 309.51 216.505 307.505 211.984 305.828C216.432 304.297 219.312 302.766 220.625 301.234C222.812 298.609 223.906 295.292 223.906 291.281C223.906 287.198 223.615 283.151 223.031 279.141C222.448 275.13 221.5 271.156 220.188 267.219C218.948 263.281 217.344 259.526 215.375 255.953C213.479 252.307 211.182 249.099 208.484 246.328C202.578 240.276 195.615 237.25 187.594 237.25C185.115 237.25 182.708 237.323 180.375 237.469C178.042 237.542 176.328 238.234 175.234 239.547V375.828ZM229.594 256.281C235.062 271.521 237.797 284.573 237.797 295.438C237.797 299.156 237.469 301.344 236.812 302C236.229 302.656 235.573 303.24 234.844 303.75C233.531 304.625 232.109 305.318 230.578 305.828C234.953 307.797 237.25 309.693 237.469 311.516C237.615 312.318 237.688 313.12 237.688 313.922V316.656C237.688 326.5 236.667 336.052 234.625 345.312C232.583 354.5 231.052 360.734 230.031 364.016C233.312 363.068 235.682 360.917 237.141 357.562C238.672 354.135 239.948 350.49 240.969 346.625C242.062 342.688 242.938 338.531 243.594 334.156C245.052 325.188 245.781 315.818 245.781 306.047C245.781 288.547 243.193 274.438 238.016 263.719C235.755 259.49 232.948 257.01 229.594 256.281ZM145.484 364.016C149.13 362.63 151.135 357.854 151.5 349.688C151.938 341.521 152.156 330.219 152.156 315.781C152.156 301.344 152.12 291.755 152.047 287.016C152.047 282.203 152.01 278.339 151.938 275.422C151.719 266.818 150.88 261.641 149.422 259.891C148.036 258.068 146.724 256.865 145.484 256.281C145.484 281.656 145.047 296.094 144.172 299.594C143.151 302.51 140.672 304.589 136.734 305.828C141.109 307.359 143.589 309.219 144.172 311.406C145.047 314.906 145.484 327.703 145.484 349.797V364.016Z" fill="#713600"/>
<path d="M385.453 359.969C387.057 356.906 390.01 355.375 394.312 355.375C397.229 355.375 399.49 356.578 401.094 358.984C402.406 360.88 403.062 363.214 403.062 365.984C403.062 368.682 402.37 371.417 400.984 374.188C399.599 376.958 397.703 379.474 395.297 381.734C392.891 383.995 390.12 386 386.984 387.75C383.922 389.5 380.641 390.958 377.141 392.125C369.922 394.531 362.411 395.734 354.609 395.734C346.807 395.734 339.479 394.458 332.625 391.906C325.844 389.281 320.01 385.635 315.125 380.969C305.573 371.781 299.74 359.167 297.625 343.125C297.115 339.552 296.276 337 295.109 335.469C292.922 332.771 289.312 330.182 284.281 327.703C290.625 324.859 294.672 320.302 296.422 314.031C296.932 312.281 297.333 310.531 297.625 308.781C299.448 295.948 305.938 285.01 317.094 275.969C327.885 267.219 339.953 262.844 353.297 262.844C367.151 262.844 379.146 267.729 389.281 277.5C399.781 287.562 405.031 299.922 405.031 314.578C405.031 315.089 404.995 315.599 404.922 316.109C404.922 316.62 404.958 317.094 405.031 317.531C405.177 318.479 405.76 319.026 406.781 319.172C408.094 320.849 408.75 322.635 408.75 324.531C408.75 328.906 406.417 331.495 401.75 332.297C400.583 332.516 398.76 332.807 396.281 333.172L334.594 343.016V353.516C334.594 361.974 337.146 368.682 342.25 373.641C347.062 378.38 353.151 380.75 360.516 380.75C368.318 380.75 374.589 379.146 379.328 375.938C383.776 372.875 386 368.865 386 363.906C386 362.74 385.818 361.427 385.453 359.969ZM366.312 324.641V294.016C366.312 289.203 365.365 285.667 363.469 283.406C360.115 279.542 356.797 277.609 353.516 277.609C350.234 277.609 347.5 278.12 345.312 279.141C343.125 280.089 341.229 281.62 339.625 283.734C336.271 288.182 334.594 295.109 334.594 304.516V329.781L366.312 324.641ZM382.5 321.906V318.516C382.5 304.953 381.37 296.75 379.109 293.906C378.089 292.667 376.958 291.755 375.719 291.172V323L382.5 321.906ZM316.766 364.016C317.786 363.214 318.297 362.302 318.297 361.281C318.297 359.677 317.969 357.635 317.312 355.156C314.323 343.708 312.828 335.76 312.828 331.312C312.828 326.792 312.974 323.292 313.266 320.812C313.557 318.26 313.958 315.708 314.469 313.156C315.344 308.198 316.292 303.823 317.312 300.031C317.969 297.552 318.297 295.875 318.297 295C318.297 293.25 317.786 291.974 316.766 291.172C313.703 294.818 311.37 299.703 309.766 305.828C308.161 311.953 306.849 317.349 305.828 322.016C305.464 323.984 303.312 325.88 299.375 327.703C303.312 329.526 305.464 331.349 305.828 333.172C308.526 345.495 310.75 353.333 312.5 356.688C314.25 360.042 315.672 362.484 316.766 364.016ZM616.781 380.75C612.188 376.083 608.542 370.542 605.844 364.125C603.219 357.708 601.615 352.203 601.031 347.609C600.448 343.016 599.938 340.062 599.5 338.75C599.135 337.438 598.479 336.198 597.531 335.031C595.635 332.625 592.172 330.182 587.141 327.703C593.484 324.859 597.531 320.302 599.281 314.031C599.792 312.281 600.193 310.531 600.484 308.781C602.38 295.729 608.688 284.828 619.406 276.078C630.125 267.255 642.63 262.844 656.922 262.844C671.797 262.844 684.594 267.292 695.312 276.188C705.74 284.865 711.901 295.729 713.797 308.781C714.453 313.375 715.438 316.729 716.75 318.844C719.229 322.708 722.693 325.661 727.141 327.703C722.182 330.109 718.974 332.224 717.516 334.047C715.547 336.599 714.307 339.625 713.797 343.125C711.464 360.333 705.484 373.422 695.859 382.391C686.234 391.286 673.401 395.734 657.359 395.734C640.151 395.734 626.625 390.74 616.781 380.75ZM675.734 305.609C675.734 287.38 669.536 278.266 657.141 278.266C644.745 278.266 638.547 287.38 638.547 305.609V354.062C638.547 371.562 644.708 380.312 657.031 380.312C669.5 380.312 675.734 371.562 675.734 354.062V305.609ZM686.234 364.016C689.88 362.63 691.885 357.854 692.25 349.688C692.688 341.521 692.906 335.469 692.906 331.531C692.906 327.521 692.87 324.203 692.797 321.578C692.797 318.88 692.76 316.109 692.688 313.266C692.396 302.62 691.557 296.422 690.172 294.672C688.786 292.922 687.474 291.755 686.234 291.172V364.016ZM620.719 364.016C621.74 363.214 622.25 362.302 622.25 361.281C622.25 359.677 621.922 357.635 621.266 355.156C618.276 343.708 616.781 335.76 616.781 331.312C616.781 326.792 616.927 323.292 617.219 320.812C617.51 318.26 617.875 315.708 618.312 313.156C619.26 308.198 620.245 303.823 621.266 300.031C621.922 297.552 622.25 295.875 622.25 295C622.25 293.25 621.74 291.974 620.719 291.172C617.656 294.818 615.323 299.703 613.719 305.828C612.115 311.953 610.802 317.349 609.781 322.016C609.417 323.984 607.266 325.88 603.328 327.703C607.266 329.526 609.417 331.349 609.781 333.172C612.479 345.495 614.703 353.333 616.453 356.688C618.203 360.042 619.625 362.484 620.719 364.016ZM762.906 391.688C759.552 394.021 755.724 395.188 751.422 395.188C747.12 395.188 743.984 394.203 742.016 392.234C740.12 390.193 739.172 388.26 739.172 386.438C739.172 384.031 739.573 382.281 740.375 381.188C741.979 382.427 744.021 383.047 746.5 383.047C751.167 383.047 754.193 380.786 755.578 376.266V342.25C755.578 339.042 754.885 336.708 753.5 335.25C751.385 332.844 747.63 330.328 742.234 327.703C747.339 325.37 750.583 323.51 751.969 322.125C754.375 319.719 755.578 316.766 755.578 313.266V297.297C755.578 291.099 753.464 287.745 749.234 287.234C747.995 287.089 746.427 287.016 744.531 287.016C742.635 287.016 740.885 287.635 739.281 288.875C738.26 287.49 737.75 286.068 737.75 284.609C737.75 283.078 738.115 281.401 738.844 279.578C739.646 277.682 740.812 275.896 742.344 274.219C746.208 270.281 750.656 268.312 755.688 268.312C760.792 268.312 765.021 269.115 768.375 270.719C772.385 266.198 776.469 263.938 780.625 263.938C784.781 263.938 787.661 264.922 789.266 266.891C790.87 268.786 791.672 271.74 791.672 275.75V286.031C795.464 279.25 800.641 273.891 807.203 269.953C813.766 265.943 820.729 263.938 828.094 263.938C835.458 263.938 841.365 264.922 845.812 266.891C850.333 268.786 854.052 271.521 856.969 275.094C862.656 282.167 865.5 292.448 865.5 305.938V313.156C865.5 316.656 866.266 319.172 867.797 320.703C870.057 323.036 873.74 325.37 878.844 327.703C873.375 330.401 869.948 332.443 868.562 333.828C866.521 336.089 865.5 338.823 865.5 342.031V376.266C866.885 380.786 869.911 383.047 874.578 383.047C877.057 383.047 879.099 382.427 880.703 381.188C881.505 382.281 881.906 383.885 881.906 386C881.906 388.115 880.922 390.193 878.953 392.234C877.057 394.203 874.104 395.188 870.094 395.188C866.083 395.188 862.438 394.057 859.156 391.797C856.24 394.057 852.812 395.188 848.875 395.188C845.01 395.188 841.547 394.094 838.484 391.906C835.276 394.094 831.849 395.188 828.203 395.188C824.557 395.188 821.677 394.276 819.562 392.453C817.448 390.63 816.391 388.005 816.391 384.578C816.391 382.974 816.938 381.698 818.031 380.75C819.708 382.062 821.385 382.719 823.062 382.719C826.271 382.719 828.568 380.932 829.953 377.359V312.172C829.953 298.026 826.49 289.823 819.562 287.562C817.302 286.833 814.859 286.469 812.234 286.469C809.609 286.469 807.167 287.016 804.906 288.109C802.646 289.13 800.604 290.589 798.781 292.484C794.771 296.714 792.401 301.745 791.672 307.578V377.359C793.057 380.932 795.354 382.719 798.562 382.719C800.24 382.719 801.917 382.062 803.594 380.75C804.688 381.698 805.234 383.448 805.234 386C805.234 388.479 804.177 390.63 802.062 392.453C799.948 394.276 797.141 395.188 793.641 395.188C790.214 395.188 787.078 394.094 784.234 391.906C781.464 394.094 778.073 395.188 774.062 395.188C770.052 395.188 766.333 394.021 762.906 391.688ZM840.453 364.016C844.099 362.63 846.104 357.854 846.469 349.688C846.906 341.521 847.125 333.828 847.125 326.609C847.125 319.391 846.833 313.448 846.25 308.781C845.667 304.042 844.828 300.359 843.734 297.734C842.641 295.036 841.328 293.104 839.797 291.938C838.339 290.698 836.734 289.641 834.984 288.766C837.755 295.328 839.359 301.307 839.797 306.703C840.234 312.099 840.453 317.312 840.453 322.344V364.016ZM772.312 339.844C772.385 337.438 772.422 335.432 772.422 333.828C772.495 332.151 772.531 330.802 772.531 329.781C772.531 328.76 772.531 327.74 772.531 326.719C772.531 325.625 772.495 324.203 772.422 322.453C772.422 320.703 772.385 318.771 772.312 316.656C772.312 314.542 772.24 312.464 772.094 310.422C771.875 305.391 771.547 301.927 771.109 300.031C770.234 295.802 768.557 292.885 766.078 291.281V298.391C766.078 310.641 765.786 317.859 765.203 320.047C764.693 322.161 763.818 323.766 762.578 324.859C761.411 325.953 759.661 326.901 757.328 327.703C761.703 329.234 764.182 331.057 764.766 333.172C765.641 336.672 766.078 344.547 766.078 356.797V363.906C769.432 361.719 771.365 357.271 771.875 350.562C772.167 345.823 772.312 342.25 772.312 339.844Z" fill="black"/>
<path d="M473.828 391.797C470.182 394.057 466.062 395.188 461.469 395.188C456.875 395.188 452.938 394.021 449.656 391.688C445.938 394.021 442.51 395.188 439.375 395.188C436.24 395.188 433.651 394.896 431.609 394.312C429.568 393.802 427.781 393.073 426.25 392.125C423.115 390.229 421.547 387.859 421.547 385.016C421.547 383.557 421.948 382.281 422.75 381.188C424.354 382.427 426.396 383.047 428.875 383.047C435.365 383.047 439.849 380.276 442.328 374.734V321.25C442.328 315.562 439.484 311.26 433.797 308.344L428.984 305.828C435.474 302.839 439.521 299.594 441.125 296.094C441.927 294.49 442.328 292.521 442.328 290.188V244.031C439.849 238.417 435.365 235.609 428.875 235.609C426.396 235.609 424.354 236.229 422.75 237.469C421.948 236.375 421.547 235.135 421.547 233.75C421.547 232.292 421.948 230.943 422.75 229.703C423.625 228.464 424.792 227.406 426.25 226.531C429.604 224.49 433.396 223.469 437.625 223.469C441.927 223.469 445.938 224.635 449.656 226.969C452.938 224.635 456.875 223.469 461.469 223.469C466.135 223.469 470.255 224.635 473.828 226.969C477.255 224.635 481.083 223.469 485.312 223.469C491.51 223.469 495.958 225.547 498.656 229.703C499.458 231.016 499.859 232.401 499.859 233.859C499.859 235.318 499.422 236.521 498.547 237.469C496.943 236.229 494.938 235.609 492.531 235.609C486.917 235.609 483.161 238.344 481.266 243.812V300.031L531.578 240.422C531.578 237.141 529.755 235.5 526.109 235.5C522.464 235.5 519.438 236.193 517.031 237.578C516.229 236.266 515.828 234.589 515.828 232.547C515.828 230.432 516.922 228.391 519.109 226.422C521.297 224.453 524.323 223.469 528.188 223.469C532.125 223.469 535.37 224.417 537.922 226.312C540.474 224.417 543.318 223.469 546.453 223.469C549.589 223.469 552.396 224.453 554.875 226.422C557.354 224.453 559.87 223.469 562.422 223.469C564.974 223.469 566.979 223.724 568.438 224.234C569.969 224.672 571.281 225.292 572.375 226.094C574.927 227.99 576.203 230.104 576.203 232.438C576.203 234.771 575.839 236.484 575.109 237.578C573.578 237.068 571.828 236.812 569.859 236.812C565.849 236.812 562.896 237.214 561 238.016C559.177 238.818 557.391 239.729 555.641 240.75C553.964 241.771 552.25 242.938 550.5 244.25L545.469 247.969C543.792 249.281 542.443 250.484 541.422 251.578L516.375 281L562.422 364.781C568.109 374.99 572.667 380.823 576.094 382.281C577.333 382.792 578.938 383.047 580.906 383.047C582.875 383.047 584.661 382.427 586.266 381.188C587.068 382.281 587.469 383.557 587.469 385.016C587.469 386.401 587.068 387.714 586.266 388.953C585.464 390.193 584.406 391.25 583.094 392.125C580.104 394.167 576.312 395.188 571.719 395.188C567.125 395.188 562.969 394.021 559.25 391.688C555.531 394.021 551.302 395.188 546.562 395.188C541.823 395.188 537.594 394.021 533.875 391.688C530.156 394.021 526.073 395.188 521.625 395.188C517.25 395.188 513.823 394.203 511.344 392.234C508.938 390.193 507.734 387.786 507.734 385.016C507.734 383.557 508.135 382.281 508.938 381.188C510.542 382.427 512.583 383.047 515.062 383.047C519.656 383.047 523.047 381.26 525.234 377.688L491.438 310.094L481.266 322.016V374.844C483.161 380.312 486.917 383.047 492.531 383.047C494.938 383.047 496.943 382.427 498.547 381.188C499.422 382.135 499.859 383.339 499.859 384.797C499.859 386.255 499.422 387.641 498.547 388.953C497.745 390.266 496.688 391.396 495.375 392.344C492.604 394.24 489.25 395.188 485.312 395.188C481.156 395.188 477.328 394.057 473.828 391.797ZM452.609 364.016C456.255 362.63 458.26 357.854 458.625 349.688C459.062 341.521 459.281 330.219 459.281 315.781C459.281 301.344 459.245 291.755 459.172 287.016C459.172 282.203 459.135 278.339 459.062 275.422C458.844 266.818 458.005 261.641 456.547 259.891C455.161 258.068 453.849 256.865 452.609 256.281C452.609 281.656 452.172 296.094 451.297 299.594C450.276 302.51 447.797 304.589 443.859 305.828C448.234 307.359 450.714 309.219 451.297 311.406C452.172 314.906 452.609 327.703 452.609 349.797V364.016ZM529.719 364.016C530.594 362.849 531.031 361.135 531.031 358.875C531.031 353.917 529.318 348.266 525.891 341.922L504.562 298.172L499.641 303.312L529.719 364.016Z" fill="#713600"/>
<g clip-path="url(#clip3_1_3)">
<path d="M894.189 170.738C895.082 170.738 895.939 170.436 896.571 169.898C897.202 169.36 897.557 168.63 897.557 167.869C897.557 167.108 897.202 166.378 896.571 165.84C895.939 165.302 895.082 165 894.189 165C892.739 164.998 891.303 165.241 889.962 165.712C888.622 166.184 887.404 166.876 886.378 167.749C885.352 168.622 884.538 169.659 883.983 170.8C883.428 171.941 883.142 173.164 883.142 174.4C883.142 174.469 883.142 174.526 883.142 174.595V193.796C883.142 193.853 883.142 193.911 883.142 193.979C883.142 200.292 873.051 204.389 872.957 204.423C872.373 204.653 871.878 205.02 871.531 205.482C871.184 205.944 871 206.481 871 207.029C871 207.577 871.184 208.114 871.531 208.575C871.878 209.037 872.373 209.404 872.957 209.634C873.065 209.668 883.142 213.766 883.142 220.089C883.142 220.147 883.142 220.204 883.142 220.273V239.463C883.142 239.531 883.142 239.6 883.142 239.6C883.142 242.093 884.304 244.484 886.374 246.247C888.443 248.01 891.249 249 894.175 249C895.069 249 895.925 248.698 896.557 248.16C897.189 247.622 897.544 246.892 897.544 246.131C897.544 245.37 897.189 244.64 896.557 244.102C895.925 243.564 895.069 243.262 894.175 243.262C893.074 243.263 892.014 242.904 891.215 242.259C890.415 241.614 889.937 240.732 889.878 239.795C889.878 239.795 889.878 239.704 889.878 239.658V220.089C889.878 220.021 889.878 219.952 889.878 219.883C889.77 213.892 884.799 209.554 880.784 207.04C884.826 204.515 889.757 200.154 889.878 194.197C889.878 194.129 889.878 194.06 889.878 193.991V174.4C889.878 174.4 889.878 174.308 889.878 174.262C889.92 173.313 890.393 172.415 891.197 171.758C892.002 171.1 893.074 170.735 894.189 170.738Z" fill="#713600"/>
<path d="M946.057 204.423C945.949 204.423 935.858 200.292 935.858 193.979C935.858 193.922 935.858 193.865 935.858 193.796V174.583C935.858 174.526 935.858 174.457 935.858 174.388C935.855 171.897 934.691 169.509 932.622 167.749C930.553 165.989 927.749 165 924.825 165C923.931 165 923.075 165.302 922.443 165.84C921.811 166.378 921.457 167.108 921.457 167.869C921.457 168.63 921.811 169.36 922.443 169.898C923.075 170.436 923.931 170.739 924.825 170.739C925.932 170.741 926.996 171.107 927.795 171.762C928.593 172.416 929.064 173.308 929.109 174.25C929.109 174.25 929.109 174.342 929.109 174.388V193.979C929.109 194.048 929.109 194.117 929.109 194.186C929.216 200.177 934.188 204.515 938.202 207.029C934.161 209.554 929.23 213.915 929.109 219.871C929.109 219.94 929.109 220.009 929.109 220.078V239.6C929.109 239.6 929.109 239.692 929.109 239.738C929.064 240.681 928.593 241.573 927.795 242.227C926.996 242.881 925.932 243.248 924.825 243.25C923.931 243.25 923.075 243.552 922.443 244.09C921.811 244.628 921.457 245.358 921.457 246.119C921.457 246.88 921.811 247.61 922.443 248.148C923.075 248.686 923.931 248.989 924.825 248.989C927.749 248.989 930.553 248 932.622 246.239C934.691 244.479 935.855 242.091 935.858 239.6C935.858 239.531 935.858 239.474 935.858 239.405V220.25C935.858 220.193 935.858 220.135 935.858 220.067C935.858 213.754 945.949 209.657 946.043 209.622C946.627 209.393 947.122 209.025 947.469 208.564C947.816 208.102 948 207.565 948 207.017C948 206.469 947.816 205.932 947.469 205.471C947.122 205.009 946.627 204.642 946.043 204.412L946.057 204.423Z" fill="#713600"/>
</g>
</g>
</g>
</g>
<defs>
<clipPath id="clip0_1_3">
<rect width="1000" height="623" fill="white" transform="translate(-0.606061 0.264839)"/>
</clipPath>
<clipPath id="clip1_1_3">
<rect width="997.607" height="623.504" fill="white" transform="translate(0.590397 0.0126247)"/>
</clipPath>
<clipPath id="clip2_1_3">
<rect width="997.607" height="623.504" fill="white" transform="translate(0.590397 0.0126247)"/>
</clipPath>
<clipPath id="clip3_1_3">
<rect width="77" height="84" fill="white" transform="translate(871 165)"/>
</clipPath>
</defs>
</svg>
